<?xml version="1.0" encoding="UTF-8"?>
<!DOCTYPE svg PUBLIC "-//W3C//DTD SVG 1.1//EN" "http://www.w3.org/Graphics/SVG/1.1/DTD/svg11.dtd">
<!-- Creator: CorelDRAW 2020 (64-Bit Evaluation Version) -->
<svg xmlns="http://www.w3.org/2000/svg" xml:space="preserve" width="8442px" height="9748px" version="1.1" style="shape-rendering:geometricPrecision; text-rendering:geometricPrecision; image-rendering:optimizeQuality; fill-rule:evenodd; clip-rule:evenodd"
viewBox="0 0 8438.53 9743.98"
 xmlns:xlink="http://www.w3.org/1999/xlink"
 xmlns:xodm="http://www.corel.com/coreldraw/odm/2003">
 <defs>
  <style type="text/css">
   <![CDATA[
    .str0 {stroke:#373435;stroke-width:2.36;stroke-miterlimit:22.9256}
    .fil1 {fill:#373435}
    .fil5 {fill:#EF4A37}
    .fil3 {fill:#1B9AD7}
    .fil2 {fill:#76B644}
    .fil0 {fill:#FCB518}
    .fil4 {fill:#E6E7E8;fill-rule:nonzero}
   ]]>
  </style>
 </defs>
 <g id="图层_x0020_1">
  <metadata id="CorelCorpID_0Corel-Layer"/>
  <polygon class="fil0" points="4219.26,0 6328.9,1218 8438.53,2435.99 8438.53,4871.99 8438.53,7307.98 6328.9,8525.98 4219.26,9743.98 2109.63,8525.98 0,7307.98 0,4871.99 0,2435.99 2109.63,1218 "/>
  <polygon class="fil1 str0" points="4219.26,287 6204.62,1433.25 8189.98,2579.5 8189.98,4871.99 8189.98,7164.48 6204.62,8310.72 4219.26,9456.97 2233.91,8310.72 248.55,7164.48 248.55,4871.99 248.55,2579.5 2233.91,1433.25 "/>
  <polygon class="fil2" points="3906.02,3183.13 5436.73,2190.94 5436.73,3483.55 "/>
  <polygon class="fil0" points="2815.23,5749.77 5436.74,5749.77 5436.74,4071.86 "/>
  <polygon class="fil3" points="4345.88,3965.45 2815.16,4957.64 2815.16,3665.03 "/>
  <g id="_1713672554880">
   <path class="fil4" d="M7626.3 7313.8l-194.4 0 0 -467.44c0,-89.77 -12.58,-154.96 -38.02,-194.98 -25.45,-40.31 -68.33,-60.32 -128.66,-60.32 -50.89,0 -94.05,25.44 -129.51,76.05 -35.45,50.88 -53.17,111.78 -53.17,182.68l0 464.01 -194.98 0 0 -483.17c0,-159.81 -56.32,-239.57 -169.25,-239.57 -52.61,0 -95.78,24.01 -129.52,72.04 -33.73,48.03 -50.6,110.07 -50.6,186.69l0 464.01 -194.4 0 0 -857.68 194.4 0 0 135.79 3.44 0c62.03,-104.06 152.09,-155.81 270.45,-155.81 59.18,0 110.93,16.3 155.53,48.89 44.31,32.59 74.61,75.48 90.63,128.65 63.75,-118.36 158.67,-177.54 285.03,-177.54 188.69,0 283.03,116.36 283.03,349.08l0 528.62z"/>
   <path class="fil4" d="M5535 7189.72l-3.43 0 0 124.08 -194.41 0 0 -1269.66 194.41 0 0 562.64 3.43 0c66.33,-113.78 163.53,-170.68 291.33,-170.68 108.35,0 193.26,38.31 254.15,115.22 61.19,76.62 91.78,179.54 91.78,308.47 0,143.53 -34.31,258.45 -102.92,344.8 -68.62,86.05 -162.39,129.22 -281.32,129.22 -111.79,0 -196.12,-48.03 -253.02,-144.09zm-5.14 -340.79l0 106.35c0,62.62 20.01,115.51 60.03,159.25 39.74,43.45 90.63,65.19 151.81,65.19 72.05,0 128.65,-28.03 169.82,-84.06 40.89,-56.04 61.47,-134.37 61.47,-235 0,-84.34 -19.15,-150.39 -57.46,-198.13 -38.03,-47.74 -90.06,-71.47 -155.24,-71.47 -69.19,0 -124.94,24.58 -167.25,73.47 -42.03,49.17 -63.18,110.64 -63.18,184.4z"/>
   <path class="fil4" d="M4150.5 7304.65c-37.74,18.87 -87.77,28.3 -149.8,28.3 -166.4,0 -249.59,-79.76 -249.59,-239.58l0 -484.88 -143.24 0 0 -152.37 143.24 0 0 -198.42 194.41 -55.46 0 253.88 204.98 0 0 152.37 -204.98 0 0 428.85c0,50.89 9.14,87.2 27.44,108.92 18.58,21.73 49.17,32.59 92.34,32.59 32.88,0 61.19,-9.43 85.2,-28.3l0 154.1z"/>
   <path class="fil4" d="M3435.32 7313.8l-194.12 0 0 -469.16c0,-169.53 -56.89,-254.44 -170.11,-254.44 -56.89,0 -104.92,24.59 -144.09,73.76 -39.16,48.89 -58.6,111.78 -58.6,188.41l0 461.43 -195.27 0 0 -1269.66 195.27 0 0 554.35 3.43 0c64.61,-108.35 157.52,-162.39 277.88,-162.39 190.41,0 285.61,116.36 285.61,349.08l0 528.62z"/>
   <polygon class="fil4" points="1482.64,7313.8 1288.23,7313.8 1288.23,6456.12 1482.64,6456.12 "/>
   <path class="fil4" d="M1386.29 6276c-31.73,0 -58.89,-10.29 -81.48,-30.88 -22.87,-20.87 -34.02,-46.88 -34.02,-78.9 0,-31.74 11.15,-58.32 34.02,-79.48 22.59,-21.16 49.75,-31.73 81.48,-31.73 32.88,0 60.9,10.57 83.77,31.73 22.87,21.16 34.31,47.74 34.31,79.48 0,30.3 -11.44,56.04 -34.31,77.47 -22.87,21.45 -50.89,32.31 -83.77,32.31z"/>
   <polygon class="fil4" points="1112.75,7313.8 917.48,7313.8 917.48,6044.14 1112.75,6044.14 "/>
   <path class="fil4" d="M2496.58 7245.18c0,314.77 -158.39,472.3 -474.87,472.3 -111.79,0 -209.28,-18.58 -292.48,-56.04l0 -177.54c93.78,53.47 182.98,80.34 267.32,80.34 203.84,0 305.62,-100.35 305.62,-300.76l0 -93.77 -3.43 0c-64.05,109.5 -160.68,164.1 -289.61,164.1 -104.36,0 -188.7,-38.02 -252.73,-114.36 -63.76,-76.05 -95.78,-178.4 -95.78,-306.76 0,-145.81 34.31,-261.6 102.92,-347.65 68.9,-86.05 163.25,-128.94 283.32,-128.94 113.22,0 197.27,46.32 251.88,138.94l3.43 0 0 -118.92 194.41 0 0 789.06zm-192.7 -324.2l0 -111.5c0,-60.32 -20.01,-111.78 -59.75,-154.38 -40.02,-42.89 -89.77,-64.04 -149.52,-64.04 -73.76,0 -131.51,27.16 -172.97,81.48 -41.74,54.6 -62.61,130.65 -62.61,228.43 0,84.33 20.02,151.52 60.04,202.12 39.74,50.61 92.91,75.76 158.67,75.76 66.9,0 121.51,-24.01 163.25,-72.32 42.02,-48.32 62.89,-110.08 62.89,-185.55z"/>
   <path class="fil4" d="M5165.09 7245.18c0,314.77 -158.38,472.3 -474.87,472.3 -111.78,0 -209.27,-18.58 -292.47,-56.04l0 -177.54c93.77,53.47 182.97,80.34 267.31,80.34 203.84,0 305.62,-100.35 305.62,-300.76l0 -93.77 -3.43 0c-64.04,109.5 -160.67,164.1 -289.61,164.1 -104.35,0 -188.69,-38.02 -252.73,-114.36 -63.76,-76.05 -95.78,-178.4 -95.78,-306.76 0,-145.81 34.31,-261.6 102.93,-347.65 68.9,-86.05 163.24,-128.94 283.32,-128.94 113.21,0 197.27,46.32 251.87,138.94l3.43 0 0 -118.92 194.41 0 0 789.06zm-192.69 -324.2l0 -111.5c0,-60.32 -20.02,-111.78 -59.75,-154.38 -40.03,-42.89 -89.77,-64.04 -149.53,-64.04 -73.76,0 -131.51,27.16 -172.96,81.48 -41.74,54.6 -62.61,130.65 -62.61,228.43 0,84.33 20.01,151.52 60.03,202.12 39.74,50.61 92.92,75.76 158.67,75.76 66.9,0 121.51,-24.01 163.25,-72.32 42.03,-48.32 62.9,-110.08 62.9,-185.55z"/>
  </g>
  <polygon class="fil5" points="2814.64,3068.81 2814.64,1388.62 5436.7,1388.62 "/>
 </g>
</svg>
